<mxfile host="Electron" modified="2024-12-18T06:30:41.630Z" agent="Mozilla/5.0 (Windows NT 10.0; Win64; x64) AppleWebKit/537.36 (KHTML, like Gecko) draw.io/22.0.3 Chrome/114.0.5735.289 Electron/25.8.4 Safari/537.36" etag="RGQkCREy4wM9hzhsfkde" version="22.0.3" type="device">
  <diagram name="Страница — 1" id="ZRzrZa9QhslBWEM4_FiC">
    <mxGraphModel dx="1418" dy="828" grid="1" gridSize="10" guides="1" tooltips="1" connect="1" arrows="1" fold="1" page="1" pageScale="1" pageWidth="827" pageHeight="1169" math="0" shadow="0">
      <root>
        <mxCell id="0" />
        <mxCell id="1" parent="0" />
        <mxCell id="vuVYo8F-hsqKBNo_aHGX-1" value="" style="group" vertex="1" connectable="0" parent="1">
          <mxGeometry x="10" y="260" width="210" height="80" as="geometry" />
        </mxCell>
        <mxCell id="vuVYo8F-hsqKBNo_aHGX-2" value="&amp;lt;&amp;lt;MainWindow&amp;gt;&amp;gt;&lt;br&gt;&lt;br&gt;- обрабатывает события" style="html=1;align=center;verticalAlign=middle;dashed=0;whiteSpace=wrap;" vertex="1" parent="vuVYo8F-hsqKBNo_aHGX-1">
          <mxGeometry width="200" height="80" as="geometry" />
        </mxCell>
        <mxCell id="vuVYo8F-hsqKBNo_aHGX-3" value="" style="html=1;outlineConnect=0;whiteSpace=wrap;fillColor=#ffffff;shape=mxgraph.archimate3.component;" vertex="1" parent="vuVYo8F-hsqKBNo_aHGX-1">
          <mxGeometry x="150" y="15" width="30" height="30" as="geometry" />
        </mxCell>
        <mxCell id="vuVYo8F-hsqKBNo_aHGX-4" value="" style="whiteSpace=wrap;html=1;aspect=fixed;fillColor=#000000;" vertex="1" parent="vuVYo8F-hsqKBNo_aHGX-1">
          <mxGeometry x="190" y="25" width="20" height="20" as="geometry" />
        </mxCell>
        <mxCell id="vuVYo8F-hsqKBNo_aHGX-5" value="" style="group" vertex="1" connectable="0" parent="1">
          <mxGeometry x="330" y="260" width="200" height="80" as="geometry" />
        </mxCell>
        <mxCell id="vuVYo8F-hsqKBNo_aHGX-6" value="&amp;lt;&amp;lt;GraphManager&amp;gt;&amp;gt;&lt;br&gt;&lt;br&gt;- управляет графиком&lt;br&gt;-рисует оси&lt;br&gt;-обновляет данные" style="html=1;align=center;verticalAlign=middle;dashed=0;whiteSpace=wrap;" vertex="1" parent="vuVYo8F-hsqKBNo_aHGX-5">
          <mxGeometry width="186" height="80" as="geometry" />
        </mxCell>
        <mxCell id="vuVYo8F-hsqKBNo_aHGX-7" value="" style="html=1;outlineConnect=0;whiteSpace=wrap;fillColor=#ffffff;shape=mxgraph.archimate3.component;" vertex="1" parent="vuVYo8F-hsqKBNo_aHGX-5">
          <mxGeometry x="136" y="15" width="30" height="30" as="geometry" />
        </mxCell>
        <mxCell id="vuVYo8F-hsqKBNo_aHGX-8" value="" style="whiteSpace=wrap;html=1;aspect=fixed;fillColor=#000000;" vertex="1" parent="vuVYo8F-hsqKBNo_aHGX-5">
          <mxGeometry x="176" y="20" width="20" height="20" as="geometry" />
        </mxCell>
        <mxCell id="vuVYo8F-hsqKBNo_aHGX-9" value="" style="group" vertex="1" connectable="0" parent="1">
          <mxGeometry x="637" y="260" width="190" height="80" as="geometry" />
        </mxCell>
        <mxCell id="vuVYo8F-hsqKBNo_aHGX-10" value="&amp;lt;&amp;lt;&amp;lt;&amp;lt;WPF&amp;gt;&amp;gt;&amp;gt;&amp;gt;&lt;br&gt;&lt;br&gt;- предоставляет элементы UI&lt;br&gt;- Canvas, Shapes, TextBlocks" style="html=1;align=center;verticalAlign=middle;dashed=0;whiteSpace=wrap;" vertex="1" parent="vuVYo8F-hsqKBNo_aHGX-9">
          <mxGeometry width="190" height="80" as="geometry" />
        </mxCell>
        <mxCell id="vuVYo8F-hsqKBNo_aHGX-11" value="" style="html=1;outlineConnect=0;whiteSpace=wrap;fillColor=#ffffff;shape=mxgraph.archimate3.component;" vertex="1" parent="vuVYo8F-hsqKBNo_aHGX-9">
          <mxGeometry x="140" y="15" width="30" height="30" as="geometry" />
        </mxCell>
        <mxCell id="vuVYo8F-hsqKBNo_aHGX-12" value="" style="whiteSpace=wrap;html=1;aspect=fixed;fillColor=#000000;" vertex="1" parent="1">
          <mxGeometry x="320" y="285" width="20" height="20" as="geometry" />
        </mxCell>
        <mxCell id="vuVYo8F-hsqKBNo_aHGX-13" value="" style="whiteSpace=wrap;html=1;aspect=fixed;fillColor=#000000;" vertex="1" parent="1">
          <mxGeometry x="628" y="280" width="20" height="20" as="geometry" />
        </mxCell>
        <mxCell id="vuVYo8F-hsqKBNo_aHGX-14" value="" style="shape=providedRequiredInterface;html=1;verticalLabelPosition=bottom;sketch=0;direction=west;fillColor=#000000;" vertex="1" parent="1">
          <mxGeometry x="260" y="285" width="20" height="20" as="geometry" />
        </mxCell>
        <mxCell id="vuVYo8F-hsqKBNo_aHGX-15" value="" style="shape=providedRequiredInterface;html=1;verticalLabelPosition=bottom;sketch=0;direction=west;fillColor=#000000;" vertex="1" parent="1">
          <mxGeometry x="570" y="280" width="20" height="20" as="geometry" />
        </mxCell>
        <mxCell id="vuVYo8F-hsqKBNo_aHGX-16" value="" style="endArrow=none;startArrow=none;endFill=0;startFill=0;endSize=8;html=1;verticalAlign=bottom;labelBackgroundColor=none;strokeWidth=1;rounded=0;exitX=1;exitY=0.5;exitDx=0;exitDy=0;entryX=1;entryY=0.5;entryDx=0;entryDy=0;entryPerimeter=0;" edge="1" parent="1" source="vuVYo8F-hsqKBNo_aHGX-4" target="vuVYo8F-hsqKBNo_aHGX-14">
          <mxGeometry width="160" relative="1" as="geometry">
            <mxPoint x="240" y="340" as="sourcePoint" />
            <mxPoint x="400" y="340" as="targetPoint" />
          </mxGeometry>
        </mxCell>
        <mxCell id="vuVYo8F-hsqKBNo_aHGX-17" value="" style="endArrow=none;startArrow=none;endFill=0;startFill=0;endSize=8;html=1;verticalAlign=bottom;labelBackgroundColor=none;strokeWidth=1;rounded=0;exitX=0;exitY=0.5;exitDx=0;exitDy=0;entryX=0;entryY=0.5;entryDx=0;entryDy=0;exitPerimeter=0;" edge="1" parent="1" source="vuVYo8F-hsqKBNo_aHGX-14" target="vuVYo8F-hsqKBNo_aHGX-12">
          <mxGeometry width="160" relative="1" as="geometry">
            <mxPoint x="230" y="305" as="sourcePoint" />
            <mxPoint x="270" y="305" as="targetPoint" />
          </mxGeometry>
        </mxCell>
        <mxCell id="vuVYo8F-hsqKBNo_aHGX-18" value="" style="endArrow=none;startArrow=none;endFill=0;startFill=0;endSize=8;html=1;verticalAlign=bottom;labelBackgroundColor=none;strokeWidth=1;rounded=0;exitX=1;exitY=0.5;exitDx=0;exitDy=0;entryX=1;entryY=0.5;entryDx=0;entryDy=0;entryPerimeter=0;" edge="1" parent="1" source="vuVYo8F-hsqKBNo_aHGX-8" target="vuVYo8F-hsqKBNo_aHGX-15">
          <mxGeometry width="160" relative="1" as="geometry">
            <mxPoint x="290" y="305" as="sourcePoint" />
            <mxPoint x="330" y="305" as="targetPoint" />
          </mxGeometry>
        </mxCell>
        <mxCell id="vuVYo8F-hsqKBNo_aHGX-19" value="" style="endArrow=none;startArrow=none;endFill=0;startFill=0;endSize=8;html=1;verticalAlign=bottom;labelBackgroundColor=none;strokeWidth=1;rounded=0;exitX=0;exitY=0.5;exitDx=0;exitDy=0;entryX=0;entryY=0.5;entryDx=0;entryDy=0;exitPerimeter=0;" edge="1" parent="1" source="vuVYo8F-hsqKBNo_aHGX-15" target="vuVYo8F-hsqKBNo_aHGX-13">
          <mxGeometry width="160" relative="1" as="geometry">
            <mxPoint x="536" y="300" as="sourcePoint" />
            <mxPoint x="580" y="300" as="targetPoint" />
          </mxGeometry>
        </mxCell>
        <mxCell id="vuVYo8F-hsqKBNo_aHGX-20" value="Программа" style="shape=umlFrame;whiteSpace=wrap;html=1;pointerEvents=0;recursiveResize=0;container=1;collapsible=0;width=160;" vertex="1" parent="1">
          <mxGeometry y="220" width="840" height="170" as="geometry" />
        </mxCell>
      </root>
    </mxGraphModel>
  </diagram>
</mxfile>
